<svg xmlns="http://www.w3.org/2000/svg" viewBox="0 0 200 260" width="200" height="260" role="img" aria-label="shy"><ellipse cx="100" cy="250" rx="60" ry="6" fill="#000" opacity="0.07"/><ellipse cx="68" cy="238" rx="22" ry="11" fill="#5DB887" stroke="#3d9a70" stroke-width="3"/><ellipse cx="132" cy="238" rx="22" ry="11" fill="#5DB887" stroke="#3d9a70" stroke-width="3"/><ellipse cx="100" cy="192" rx="46" ry="50" fill="#5DB887"/><ellipse cx="100" cy="202" rx="28" ry="32" fill="#e4f4d9"/><ellipse cx="84" cy="190" rx="12" ry="22" transform="rotate(35 84 190)" fill="#5DB887" stroke="#3d9a70" stroke-width="3"/><ellipse cx="116" cy="190" rx="12" ry="22" transform="rotate(-35 116 190)" fill="#5DB887" stroke="#3d9a70" stroke-width="3"/><circle cx="58" cy="48" r="26" fill="#5DB887"/><circle cx="142" cy="48" r="26" fill="#5DB887"/><ellipse cx="100" cy="100" rx="90" ry="58" fill="#5DB887"/><ellipse cx="46" cy="106" rx="18.2" ry="10.4" fill="#f5b7ab" opacity="1"/><ellipse cx="154" cy="106" rx="18.2" ry="10.4" fill="#f5b7ab" opacity="1"/><circle cx="58" cy="48" r="8" fill="#20443a"/><circle cx="142" cy="48" r="8" fill="#20443a"/><path d="M88 110 Q100 120 112 110" fill="none" stroke="#20443a" stroke-width="4" stroke-linecap="round" stroke-linejoin="round"/><path transform="translate(166,4) scale(1.2)" d="M12 21s-7-4.5-9.5-9C0.8 8 3 4 6.5 4c2 0 4 1 5.5 3 1.5-2 3.5-3 5.5-3C21 4 23.2 8 21.5 12 19 16.5 12 21 12 21z" fill="#ef6b5f"/></svg>
